<svg width="33" height="33" viewBox="0 0 33 33" fill="none" xmlns="http://www.w3.org/2000/svg">
<rect width="32.7273" height="32.7273" fill="white"/>
<g clip-path="url(#clip0_191_521)">
<path d="M14.5542 6.47229C14.8083 5.97739 14.6167 5.36925 14.1292 5.11341C13.6417 4.85757 13.0333 5.0505 12.7792 5.5412L8.9 13.0528H5.33333C4.59583 13.0528 4 13.6526 4 14.3949C4 15.1373 4.59583 15.737 5.33333 15.737L7.49583 24.4397C7.79167 25.635 8.85833 26.4739 10.0833 26.4739H21.9167C23.1417 26.4739 24.2083 25.635 24.5042 24.4397L26.6667 15.737C27.4042 15.737 28 15.1373 28 14.3949C28 13.6526 27.4042 13.0528 26.6667 13.0528H23.1L19.2208 5.5412C18.9667 5.0505 18.3625 4.85757 17.8708 5.11341C17.3792 5.36925 17.1917 5.97739 17.4458 6.47229L20.8458 13.0528H11.1542L14.5542 6.47229ZM12 17.7502V21.7765C12 22.1456 11.7 22.4475 11.3333 22.4475C10.9667 22.4475 10.6667 22.1456 10.6667 21.7765V17.7502C10.6667 17.3811 10.9667 17.0791 11.3333 17.0791C11.7 17.0791 12 17.3811 12 17.7502ZM16 17.0791C16.3667 17.0791 16.6667 17.3811 16.6667 17.7502V21.7765C16.6667 22.1456 16.3667 22.4475 16 22.4475C15.6333 22.4475 15.3333 22.1456 15.3333 21.7765V17.7502C15.3333 17.3811 15.6333 17.0791 16 17.0791ZM21.3333 17.7502V21.7765C21.3333 22.1456 21.0333 22.4475 20.6667 22.4475C20.3 22.4475 20 22.1456 20 21.7765V17.7502C20 17.3811 20.3 17.0791 20.6667 17.0791C21.0333 17.0791 21.3333 17.3811 21.3333 17.7502Z" fill="#82A3C4"/>
</g>
<defs>
<clipPath id="clip0_191_521">
<rect width="24" height="21.4737" fill="white" transform="translate(4 5)"/>
</clipPath>
</defs>
</svg>
