<svg width="33" height="33" viewBox="0 0 33 33" fill="none" xmlns="http://www.w3.org/2000/svg">
<rect width="32.7273" height="32.7273" fill="white"/>
<g clip-path="url(#clip0_191_512)">
<path d="M27.5346 8.21209C28.0596 7.79131 28.1534 7.01539 27.7446 6.47881C27.3359 5.94223 26.5821 5.84186 26.0609 6.26264L20.6609 10.5862L17.9609 12.7479L17.6347 13.0104L16.4796 11.4895C16.3409 11.3042 16.1122 11.2193 15.8871 11.2656C15.6622 11.3119 15.4859 11.4856 15.4259 11.7095L14.9572 13.4968L17.9159 17.388L19.7159 17.3533C19.9447 17.3494 20.1472 17.2104 20.2446 17.002C20.3421 16.7935 20.3159 16.5426 20.1771 16.3573L19.1122 14.9522L19.4347 14.6935L22.1346 12.5318L27.5346 8.20823V8.21209ZM4.6259 25.5989C6.0284 25.7069 12.0059 26.0621 14.0872 24.3867C16.2509 22.6457 16.9671 18.1523 16.9671 18.1523L14.0159 14.2573C14.0159 14.2573 9.6059 13.8867 7.44215 15.6277C6.58715 16.311 5.8934 17.7393 5.3609 19.2795C5.2709 19.5382 5.53715 19.7737 5.7734 19.6424L7.23215 18.8549C7.3859 18.77 7.57715 18.8125 7.68215 18.9553C7.78715 19.0981 7.7834 19.295 7.66715 19.4301L4.91465 22.6148C4.49465 23.0974 4.2059 23.6841 4.08965 24.3172C4.0559 24.5025 4.02965 24.6608 4.00715 24.7843C3.9734 24.9773 4.0259 25.1742 4.14215 25.3286C4.2584 25.483 4.4309 25.5834 4.62215 25.5989H4.6259Z" fill="#82A3C4"/>
</g>
<defs>
<clipPath id="clip0_191_512">
<rect width="24" height="19.7647" fill="white" transform="translate(4 6)"/>
</clipPath>
</defs>
</svg>
