<svg width="27" height="25" viewBox="0 0 27 25" fill="none" xmlns="http://www.w3.org/2000/svg">
<path d="M10.0863 17.0352L9.6554 19.565C9.58911 19.9738 9.75483 20.3825 10.0863 20.6256C10.2741 20.7692 10.495 20.8355 10.727 20.8355C10.9038 20.8355 11.0695 20.7913 11.2352 20.714L13.511 19.5208L15.7867 20.714C16.1513 20.9128 16.5932 20.8797 16.9357 20.6366C17.2782 20.3936 17.4439 19.9848 17.3665 19.5761L16.9357 17.0462L18.7696 15.2565C19.0678 14.9693 19.1783 14.5384 19.0457 14.1407C18.9132 13.743 18.5818 13.4558 18.173 13.4005L15.6321 13.036L14.4942 10.7381C14.3064 10.3625 13.9308 10.1305 13.522 10.1305C13.1022 10.1305 12.7266 10.3625 12.5498 10.7381L11.4119 13.036L8.87103 13.4005C8.46227 13.4558 8.1198 13.743 7.99828 14.1407C7.86571 14.5384 7.97619 14.9693 8.27447 15.2565L10.0863 17.0352ZM11.8318 14.0634C12.0085 14.0413 12.1632 13.9198 12.2405 13.7651L13.4889 11.2021L14.7483 13.7651C14.8256 13.9308 14.9803 14.0413 15.157 14.0634L17.9741 14.4611L15.9414 16.4496C15.8088 16.5712 15.7536 16.759 15.7867 16.9357L16.2839 19.7418L13.754 18.4161C13.5993 18.3277 13.4005 18.3277 13.2458 18.4161L10.7381 19.7418L11.2241 16.9247C11.2573 16.7479 11.191 16.5601 11.0695 16.4386L9.01465 14.4611L11.8318 14.0634Z" fill="#114784"/>
<path d="M25.2655 2.20949H22.1723V0.552373C22.1723 0.254092 21.9292 0 21.6199 0C21.3106 0 21.0675 0.243044 21.0675 0.552373V2.20949H5.93249V0.552373C5.93249 0.254092 5.68944 0 5.38011 0C5.08183 0 4.82774 0.243044 4.82774 0.552373V2.20949H1.73445C0.773322 2.20949 0 2.98282 0 3.94394V6.69476V23.0561C0 24.0172 0.773322 24.7905 1.73445 24.7905H25.2655C26.2267 24.7905 27 24.0172 27 23.0561V6.69476V3.94394C27 2.98282 26.2156 2.20949 25.2655 2.20949ZM25.9063 23.0561C25.9063 23.4096 25.6191 23.6968 25.2655 23.6968H1.73445C1.38093 23.6968 1.0937 23.4096 1.0937 23.0561V7.24714H25.8953V23.0561H25.9063ZM25.9063 6.15344H1.0937V3.94394C1.0937 3.59043 1.38093 3.30319 1.73445 3.30319H25.2655C25.6191 3.30319 25.9063 3.59043 25.9063 3.94394V6.15344Z" fill="#114784"/>
</svg>
