<svg width="33" height="33" viewBox="0 0 33 33" fill="none" xmlns="http://www.w3.org/2000/svg">
<rect width="32.7273" height="32.7273" fill="white"/>
<path d="M10.4238 10.4772H12.4V13.9545H8.17375L9.31375 11.2053C9.49375 10.767 9.9325 10.4772 10.4238 10.4772ZM14.2 13.9545V10.4772H17.245C17.6088 10.4772 17.9538 10.6366 18.1825 10.9119L20.7025 13.9545H14.2ZM23.8075 13.9907L20.0575 9.46303C19.375 8.63718 18.34 8.15906 17.245 8.15906H10.4238C8.95 8.15906 7.62625 9.02475 7.0825 10.3432L5.5225 14.1139C4.63 14.4544 4 15.2911 4 16.2727V20.3295C4 20.9706 4.53625 21.4886 5.2 21.4886H6.44875C6.73375 23.1331 8.215 24.3863 10 24.3863C11.785 24.3863 13.2663 23.1331 13.5513 21.4886H18.4488C18.7338 23.1331 20.215 24.3863 22 24.3863C23.785 24.3863 25.2663 23.1331 25.5513 21.4886H26.8C27.4638 21.4886 28 20.9706 28 20.3295V18.5909C28 16.2292 26.17 14.2805 23.8075 13.9907ZM23.6987 21.4886C23.4513 22.1623 22.7838 22.6477 22 22.6477C21.2163 22.6477 20.5488 22.1623 20.3013 21.4886C20.2338 21.3075 20.2 21.1119 20.2 20.9091C20.2 19.9492 21.0063 19.1704 22 19.1704C22.9938 19.1704 23.8 19.9492 23.8 20.9091C23.8 21.1119 23.7625 21.3075 23.6987 21.4886ZM10 22.6477C9.21625 22.6477 8.54875 22.1623 8.30125 21.4886C8.23375 21.3075 8.2 21.1119 8.2 20.9091C8.2 19.9492 9.00625 19.1704 10 19.1704C10.9938 19.1704 11.8 19.9492 11.8 20.9091C11.8 21.1119 11.7625 21.3075 11.6988 21.4886C11.4513 22.1623 10.7838 22.6477 10 22.6477Z" fill="#82A3C4"/>
</svg>
