<svg width="33" height="33" viewBox="0 0 33 33" fill="none" xmlns="http://www.w3.org/2000/svg">
<rect width="32.7273" height="32.7273" fill="white"/>
<g clip-path="url(#clip0_191_518)">
<path d="M17.4995 13H18.3011C19.337 14.7953 21.2777 16 23.4995 16C24.0152 16 24.5214 15.9344 24.9995 15.8125V16V17.5V26.5C24.9995 27.3297 24.3292 28 23.4995 28C22.6698 28 21.9995 27.3297 21.9995 26.5V19.9L15.6245 25H18.2495C19.0792 25 19.7495 25.6703 19.7495 26.5C19.7495 27.3297 19.0792 28 18.2495 28H11.4995C9.01516 28 6.99954 25.9844 6.99954 23.5V13.0234C6.99954 12.2688 6.43704 11.6266 5.68704 11.5328L5.31672 11.4859C4.49172 11.3875 3.91047 10.6375 4.00891 9.8125C4.10735 8.9875 4.86204 8.40625 5.68235 8.50937L6.05266 8.55625C8.30266 8.8375 9.99485 10.75 9.99485 13.0234V17.0219C11.6073 14.5984 14.3636 13 17.4948 13H17.4995ZM24.9995 14.2422C24.5308 14.4062 24.0245 14.5 23.4995 14.5C22.1683 14.5 20.9683 13.9187 20.1433 13C19.9698 12.8078 19.8152 12.6016 19.6792 12.3813C19.248 11.6875 18.9995 10.8719 18.9995 10V5.5V4.5625V4.50156C18.9995 4.225 19.2198 4.00469 19.4964 4H19.5058C19.6605 4 19.8058 4.075 19.8995 4.19687V4.20156L20.4995 4.99844L21.7745 6.7L21.9995 7H24.9995L25.2245 6.7L26.4995 4.99844L27.0995 4.20156V4.19687C27.1933 4.075 27.3386 4 27.4933 4H27.5027C27.7792 4.00469 27.9995 4.225 27.9995 4.50156V4.5625V5.5V10C27.9995 10.8109 27.7839 11.575 27.4089 12.2313C26.8792 13.1594 26.0214 13.8813 24.9995 14.2422ZM22.7495 10C22.7495 9.5875 22.412 9.25 21.9995 9.25C21.587 9.25 21.2495 9.5875 21.2495 10C21.2495 10.4125 21.587 10.75 21.9995 10.75C22.412 10.75 22.7495 10.4125 22.7495 10ZM24.9995 10.75C25.412 10.75 25.7495 10.4125 25.7495 10C25.7495 9.5875 25.412 9.25 24.9995 9.25C24.587 9.25 24.2495 9.5875 24.2495 10C24.2495 10.4125 24.587 10.75 24.9995 10.75Z" fill="#82A3C4"/>
</g>
<defs>
<clipPath id="clip0_191_518">
<rect width="24" height="24" fill="white" transform="translate(4 4)"/>
</clipPath>
</defs>
</svg>
