<svg width="25" height="25" viewBox="0 0 25 25" fill="none" xmlns="http://www.w3.org/2000/svg">
<path d="M8.66667 12.5L11.2222 15.0556L16.3333 9.94444M24 12.5C24 14.0102 23.7025 15.5056 23.1246 16.9009C22.5467 18.2961 21.6996 19.5639 20.6317 20.6317C19.5639 21.6996 18.2961 22.5467 16.9009 23.1246C15.5056 23.7025 14.0102 24 12.5 24C10.9898 24 9.49438 23.7025 8.09914 23.1246C6.7039 22.5467 5.43615 21.6996 4.36827 20.6317C3.3004 19.5639 2.45331 18.2961 1.87539 16.9009C1.29746 15.5056 1 14.0102 1 12.5C1 9.45001 2.2116 6.52494 4.36827 4.36827C6.52494 2.2116 9.45001 1 12.5 1C15.55 1 18.4751 2.2116 20.6317 4.36827C22.7884 6.52494 24 9.45001 24 12.5Z" stroke="#68B684" stroke-width="2" stroke-linecap="round" stroke-linejoin="round"/>
</svg>
