<svg width="31" height="31" viewBox="0 0 31 31" fill="none" xmlns="http://www.w3.org/2000/svg">
<path d="M15.1094 3C8.41992 3 3 8.41992 3 15.1094C3 21.7988 8.41992 27.2188 15.1094 27.2188C21.7988 27.2188 27.2188 21.7988 27.2188 15.1094C27.2188 8.41992 21.7988 3 15.1094 3ZM17.8975 20.0947L13.5908 16.9648C13.4395 16.8525 13.3516 16.6768 13.3516 16.4912V8.27344C13.3516 7.95117 13.6152 7.6875 13.9375 7.6875H16.2812C16.6035 7.6875 16.8672 7.95117 16.8672 8.27344V14.9971L19.9678 17.2529C20.2314 17.4434 20.2852 17.8096 20.0947 18.0732L18.7178 19.9678C18.5273 20.2266 18.1611 20.2852 17.8975 20.0947Z" fill="white"/>
<path d="M15.3672 14.9971V15.7607L15.9847 16.21L18.346 17.928L18.0423 18.3457L14.8516 16.0268V9.1875H15.3672V14.9971ZM15.1094 1.5C7.59149 1.5 1.5 7.59149 1.5 15.1094C1.5 22.6273 7.59149 28.7188 15.1094 28.7188C22.6273 28.7188 28.7188 22.6273 28.7188 15.1094C28.7188 7.59149 22.6273 1.5 15.1094 1.5Z" stroke="#1B4784" stroke-opacity="0.5" stroke-width="3"/>
</svg>
