<svg width="30" height="30" viewBox="0 0 30 30" fill="none" xmlns="http://www.w3.org/2000/svg">
<circle cx="15" cy="15" r="15" fill="#D2D2D2"/>
<path d="M25.5 14.8124C25.5 20.715 20.715 25.4999 14.8125 25.4999C8.90996 25.4999 4.125 20.715 4.125 14.8124C4.125 8.9099 8.90996 4.12494 14.8125 4.12494C20.715 4.12494 25.5 8.9099 25.5 14.8124Z" fill="#B2B2B2"/>
<path d="M14.0489 8.55205C14.3483 7.63074 15.6517 7.63074 15.9511 8.55205L16.8803 11.412C17.0142 11.824 17.3981 12.103 17.8314 12.103H20.8385C21.8072 12.103 22.21 13.3426 21.4263 13.912L18.9935 15.6795C18.643 15.9342 18.4963 16.3855 18.6302 16.7976L19.5594 19.6575C19.8588 20.5788 18.8043 21.3449 18.0206 20.7755L15.5878 19.008C15.2373 18.7533 14.7627 18.7533 14.4122 19.008L11.9794 20.7755C11.1957 21.3449 10.1412 20.5788 10.4406 19.6575L11.3698 16.7976C11.5037 16.3855 11.357 15.9342 11.0065 15.6795L8.57374 13.912C7.79003 13.3426 8.19281 12.103 9.16153 12.103H12.1686C12.6019 12.103 12.9858 11.824 13.1197 11.412L14.0489 8.55205Z" fill="#D2D2D2"/>
</svg>
