<svg width="33" height="27" viewBox="0 0 33 27" fill="none" xmlns="http://www.w3.org/2000/svg">
<path d="M18.001 6.36648L15.3472 5.7017C15.0148 5.61989 14.7694 5.33864 14.7336 4.99602C14.6978 4.65341 14.8768 4.32614 15.1785 4.17273L17.2647 3.12955L15.0557 1.47273C14.7745 1.26307 14.6569 0.894886 14.7694 0.557386C14.8819 0.219886 15.1938 0 15.5466 0H21.2735H22.9098H23.7279C25.2721 0 26.7294 0.726136 27.6549 1.96364L30.6001 5.89091C30.9172 6.31534 31.091 6.83182 31.091 7.36364C31.091 8.71875 29.9917 9.81818 28.6366 9.81818H27.5373C26.668 9.81818 25.8346 9.47557 25.221 8.86193L24.546 8.18182H22.9098V9.28125C22.9098 10.5494 23.5643 11.7307 24.638 12.4057L30.0888 15.8114C31.7302 16.8392 32.7273 18.6341 32.7273 20.5722C32.7273 23.671 30.2166 26.1818 27.1129 26.1818H25.3641H22.0916H1.65381C1.48508 26.1818 1.31634 26.1614 1.16294 26.1102C0.692516 25.967 0.30902 25.6193 0.124941 25.1642C0.0533551 24.9903 0.0124488 24.8114 0.00222218 24.617C-0.0080044 24.4278 0.017562 24.2437 0.0686949 24.0699C0.211867 23.5994 0.559571 23.2159 1.01977 23.0267C1.17317 22.9653 1.33679 22.9244 1.50553 22.9142L22.1581 21.0682C22.5825 21.0324 22.9098 20.6744 22.9098 20.2449C22.9098 20.025 22.8228 19.8153 22.6694 19.6619L20.3991 17.3915C18.8651 15.8574 18.001 13.7761 18.001 11.608V9.28125V6.36648ZM26.1823 3.69716C26.1823 3.69205 26.1823 3.68693 26.1823 3.68182C26.1823 3.6767 26.1823 3.67159 26.1823 3.66648V3.69716ZM26.1158 4.07557L23.7432 3.48239C23.733 3.54886 23.7279 3.61534 23.7279 3.68182C23.7279 4.36193 24.275 4.90909 24.9551 4.90909C25.4971 4.90909 25.9522 4.56136 26.1158 4.07557ZM6.69552 5.95739C7.52898 5.21591 8.76129 5.12898 9.68679 5.74773L16.3647 10.1966V11.608C16.3647 13.2852 16.7943 14.9216 17.5919 16.3636H5.72911C5.38652 16.3636 5.07972 16.1489 4.96211 15.8318C4.84451 15.5148 4.93655 15.1517 5.19732 14.9267L8.74595 11.879L0.943067 13.0807C0.585137 13.1369 0.23232 12.9477 0.0789215 12.6205C-0.0744772 12.2932 0.00222218 11.8994 0.273227 11.6591L6.69552 5.95739Z" fill="#82A3C4"/>
</svg>
