<svg width="33" height="33" viewBox="0 0 33 33" fill="none" xmlns="http://www.w3.org/2000/svg">
<g clip-path="url(#clip0_191_499)">
<rect width="32.7273" height="32.7273" fill="white"/>
<path d="M31.0339 2.58918C30.7157 1.89015 29.8065 1.86219 29.4258 2.52208C27.6643 5.53632 24.5106 7.41533 20.908 7.41533H16.3621C10.3388 7.41533 5.45195 12.2247 5.45195 18.1525C5.45195 18.544 5.49741 18.9187 5.53719 19.2989C9.16253 16.7433 14.396 14.5735 21.8171 14.5735C22.3172 14.5735 22.7263 14.9761 22.7263 15.4682C22.7263 15.9604 22.3172 16.363 21.8171 16.363C7.5317 16.363 1.4743 24.9807 0.133268 28.2186C-0.241768 29.1302 0.201456 30.1704 1.12768 30.545C2.05959 30.9253 3.11651 30.4835 3.50291 29.5776C3.58814 29.3763 4.69052 26.8989 7.58852 24.511C9.4296 26.966 12.9299 29.3091 17.527 28.8282C26.4483 28.1907 32.7273 20.3167 32.7273 10.6756C32.7273 7.86831 32.1136 4.96032 31.0339 2.58918Z" fill="#82A3C4"/>
</g>
<defs>
<clipPath id="clip0_191_499">
<rect width="32.7273" height="32.7273" fill="white"/>
</clipPath>
</defs>
</svg>
