<svg width="33" height="33" viewBox="0 0 33 33" fill="none" xmlns="http://www.w3.org/2000/svg">
<rect width="32.7273" height="32.7273" fill="white"/>
<g clip-path="url(#clip0_191_501)">
<path d="M10.6626 7C10.9917 7 11.2659 7.23379 11.3671 7.54141C11.886 9.12871 13.4174 10.2812 15.2273 10.2812C17.0371 10.2812 18.5685 9.12871 19.0874 7.54141C19.1887 7.23379 19.4629 7 19.792 7H20.3235C21.2728 7 22.1882 7.32402 22.9181 7.91465L28.2421 12.2254C28.5206 12.451 28.6935 12.7791 28.7231 13.1318C28.7526 13.4846 28.6345 13.8332 28.394 14.0998L26.0315 16.7248C25.5506 17.2621 24.7153 17.3236 24.1499 16.8684L21.9773 15.1088V25.375C21.9773 26.8229 20.7665 28 19.2773 28H11.1773C9.68807 28 8.47729 26.8229 8.47729 25.375V15.1088L6.30463 16.8684C5.74354 17.3236 4.90823 17.2621 4.42307 16.7248L2.06057 14.0998C1.8201 13.8332 1.70197 13.4846 1.73151 13.1318C1.76104 12.7791 1.93401 12.451 2.21244 12.2254L7.53651 7.91465C8.26635 7.32402 9.18182 7 10.131 7H10.6626Z" fill="#82A3C4"/>
</g>
<defs>
<clipPath id="clip0_191_501">
<rect width="27" height="21" fill="white" transform="translate(1.72729 7)"/>
</clipPath>
</defs>
</svg>
