<svg width="37" height="37" viewBox="0 0 37 37" fill="none" xmlns="http://www.w3.org/2000/svg">
<g id="Coin">
<circle id="Ellipse 5" cx="18.5" cy="18.5" r="18.5" fill="#FEDA2C"/>
<path id="Ellipse 4" d="M31.45 18.2687C31.45 25.5485 25.5486 31.45 18.2688 31.45C10.989 31.45 5.08752 25.5485 5.08752 18.2687C5.08752 10.9889 10.989 5.08746 18.2688 5.08746C25.5486 5.08746 31.45 10.9889 31.45 18.2687Z" fill="#FCAA17"/>
<path id="Star 1" d="M17.5489 9.86455C17.8483 8.94324 19.1517 8.94324 19.4511 9.86455L20.8714 14.236C21.0053 14.648 21.3893 14.927 21.8225 14.927H26.4189C27.3876 14.927 27.7904 16.1666 27.0067 16.736L23.2881 19.4377C22.9376 19.6924 22.791 20.1437 22.9248 20.5558L24.3452 24.9272C24.6446 25.8485 23.5901 26.6146 22.8064 26.0452L19.0878 23.3435C18.7373 23.0889 18.2627 23.0889 17.9122 23.3435L14.1936 26.0452C13.4099 26.6146 12.3554 25.8485 12.6548 24.9272L14.0752 20.5558C14.209 20.1437 14.0624 19.6924 13.7119 19.4377L9.99331 16.736C9.20959 16.1666 9.61237 14.927 10.5811 14.927H15.1775C15.6107 14.927 15.9947 14.648 16.1286 14.236L17.5489 9.86455Z" fill="#FEDA2C"/>
</g>
</svg>
