<svg width="33" height="33" viewBox="0 0 33 33" fill="none" xmlns="http://www.w3.org/2000/svg">
<rect width="32.7273" height="32.7273" fill="white"/>
<g clip-path="url(#clip0_191_504)">
<path d="M12.0357 4.82969L11.7143 5.5H7.42857C6.63839 5.5 6 6.17031 6 7C6 7.82969 6.63839 8.5 7.42857 8.5H24.5714C25.3616 8.5 26 7.82969 26 7C26 6.17031 25.3616 5.5 24.5714 5.5H20.2857L19.9643 4.82969C19.7232 4.31875 19.2277 4 18.6875 4H13.3125C12.7723 4 12.2768 4.31875 12.0357 4.82969ZM24.5714 10H7.42857L8.375 25.8906C8.44643 27.0766 9.38393 28 10.5134 28H21.4866C22.6161 28 23.5536 27.0766 23.625 25.8906L24.5714 10Z" fill="#82A3C4"/>
</g>
<defs>
<clipPath id="clip0_191_504">
<rect width="20" height="24" fill="white" transform="translate(6 4)"/>
</clipPath>
</defs>
</svg>
