<svg width="33" height="33" viewBox="0 0 33 33" fill="none" xmlns="http://www.w3.org/2000/svg">
<rect width="32.7273" height="32.7273" fill="white"/>
<g clip-path="url(#clip0_191_515)">
<path d="M26.2857 4C25.4286 4 19.4286 5.5 19.4286 12.25V17.5C19.4286 19.1547 20.9661 20.5 22.8571 20.5H24.5714V26.5C24.5714 27.3297 25.3375 28 26.2857 28C27.2339 28 28 27.3297 28 26.5V20.5V15.25V5.5C28 4.67031 27.2339 4 26.2857 4ZM7.42857 4.75C7.42857 4.36563 7.10179 4.04688 6.6625 4.00469C6.22321 3.9625 5.83214 4.21562 5.73571 4.58594L4.1125 10.975C4.0375 11.2703 4 11.5703 4 11.8703C4 14.0219 5.88036 15.7891 8.28571 15.9813V26.5C8.28571 27.3297 9.05179 28 10 28C10.9482 28 11.7143 27.3297 11.7143 26.5V15.9813C14.1196 15.7891 16 14.0219 16 11.8703C16 11.5703 15.9625 11.2703 15.8875 10.975L14.2643 4.58594C14.1679 4.21094 13.7661 3.9625 13.3321 4.00469C12.8982 4.04688 12.5714 4.36563 12.5714 4.75V11.0406C12.5714 11.2937 12.3357 11.5 12.0464 11.5C11.7732 11.5 11.5482 11.3172 11.5214 11.0781L10.8518 4.68438C10.8143 4.29531 10.4446 4 10 4C9.55536 4 9.18571 4.29531 9.14821 4.68438L8.48393 11.0781C8.45714 11.3172 8.23214 11.5 7.95893 11.5C7.66964 11.5 7.43393 11.2937 7.43393 11.0406V4.75H7.42857ZM10.0161 11.875H10H9.98393L10 11.8422L10.0161 11.875Z" fill="#82A3C4"/>
</g>
<defs>
<clipPath id="clip0_191_515">
<rect width="24" height="24" fill="white" transform="translate(4 4)"/>
</clipPath>
</defs>
</svg>
